<svg xmlns="http://www.w3.org/2000/svg" style="display:block" viewBox="0 0 2048 2048" width="1024" height="1024" preserveAspectRatio="none"><path fill="#312B39" d="M118.721 794.951c2.568-22.464 11.218-45.575 17.835-67.172 49.239-160.72 170.947-329.726 302.223-434.265C635.069 136.623 885.971 64.786 1135.55 94.016c245.8 28.71 469.77 154.929 621.63 350.323 78.53 99.367 147.24 232.069 173.07 356.294 7.37 3.78 10.74 7.467 14.75 14.637.2 7.94.14 12.892-3.79 20.066 9.49 51.427 17.06 101.968 19.19 154.35a945.57 945.57 0 0 1-169.94 573.444c-55.88 81.28-129.1 152.71-207.12 212.62 4.51 17.3 15.67 50.78 15.4 67.41-.09 5.17-1.49 10.68-4.11 15.16-3.24 5.54-8.44 8.88-14.62 10.31-11.8 2.74-22.99-2.91-32.54-9.25a893 893 0 0 1-44.74-31.74c-11.47 5.47-22.3 12.12-33.44 18.2-14.09 7.54-28.35 14.75-42.78 21.61a903 903 0 0 1-278.41 82.56c-175.912 23.67-369.368-4.27-529.357-82.04-25.015-12.15-53.366-24.5-75.439-41.35-15.735 10.36-30.481 22.19-46.273 32.44-10.167 6.59-18.878 12.3-31.489 9.24-6.076-1.48-11.019-5.04-13.985-10.59-2.201-4.12-3.142-8.76-3.118-13.41.081-15.78 11.003-52.85 15.84-69.14-8.134-8-17.57-14.9-26.463-22.06a834 834 0 0 1-39.03-32.98c-58.075-52.76-105.285-107.81-150.089-172.16-19.28-27.69-35.786-57.12-51.489-86.93A928.77 928.77 0 0 1 90.951 967.4c2.48-40.712 7.081-81.976 15.337-121.956.758-3.668 1.026-4.665 4.131-6.816a40.7 40.7 0 0 1-5.714-9.065c-2.933-6.238-3.744-13.738-1.263-20.257 2.89-7.591 8.245-11.007 15.279-14.355"/><path fill="#A3CBCD" d="M118.721 794.951c2.568-22.464 11.218-45.575 17.835-67.172 49.239-160.72 170.947-329.726 302.223-434.265C635.069 136.623 885.971 64.786 1135.55 94.016c245.8 28.71 469.77 154.929 621.63 350.323 78.53 99.367 147.24 232.069 173.07 356.294-29.32-5.644-59.88-8.079-89.5-12.419l-123.62-18.829c-43.77-6.435-87.53-12.237-131.1-19.971a1110 1110 0 0 0-28.17-4.833c-16.59-.369-33.75-3.806-50.26-5.89l-92.39-11.353-101.2-12.46c-20.9-2.434-43.64-2.999-63.92-8.509-6.02-14.476-10-29.716-14.99-44.564a7057 7057 0 0 1-30.83-90.676 21786 21786 0 0 1-84.17-244.962c-4.86-13.615-10.39-27.347-13.9-41.363-20.37-50.56-36.53-102.596-55.83-153.524-3.68-9.689-8.14-18.72-18.29-22.914-6.22-2.574-12.98-2.598-19.12.244-4.46 2.067-8.08 5.573-10.59 9.781-9.575 16.063-14.622 37.075-21.119 54.69l-38.126 102.237c-4.756 13.143-9.169 26.582-14.568 39.467-12.194 39.172-26.67 77.967-40.365 116.646l-67.788 192.412c-9.602 27.625-19.756 55.17-28.391 83.11a7320 7320 0 0 0-177.081 21.911c-41.807 5.51-83.694 11.527-125.648 15.763-10.008 1.228-20.15 2.202-30.111 3.732l-248.035 33.635-56.639 7.447c-11.589 1.456-24.676 1.975-35.778 5.51"/><path fill="#FFFEFD" d="M1557.86 744.581c8.95-6.037 17.88-12.074 27.46-17.101 13.63-7.148 27.87-13.213 41.8-19.75a3525 3525 0 0 1 83.17-38.667c21.36-9.768 42.47-21.692 64.26-30.197 4.16-1.62 10.01-3.87 14.53-2.739 2.32.582 4.99 2.568 6.19 4.697 1.24 2.225 1.23 4.408.24 6.713-1.44 3.331-10.62 7.415-13.93 9.075-39.97 20.08-81.59 37.212-122.01 56.433a2560 2560 0 0 0-48.16 23.784c-8.32 4.214-16.71 9.248-25.38 12.585a1110 1110 0 0 0-28.17-4.833m-1098.687 3.778c-9.799-8.754-26.63-14.117-38.577-19.487-21.899-9.843-152.288-64.723-162.573-74.495-2.633-2.502-2.753-4.494-2.837-7.878 1.021-2.272 2.419-4.633 4.844-5.67 3.472-1.484 6.298-.344 9.546.927 44.574 17.44 87.864 38.32 131.437 58.059 26.897 12.185 57.68 23.442 82.569 39.181 2.818 1.782 4.387 2.598 5.702 5.631-10.008 1.228-20.15 2.202-30.111 3.732M1106.2 284.804l.28-1.152c6.49-26.846 8.65-55.734 11.47-83.219 1.05-10.148 1.16-21.184 3.28-31.139.61-2.857 1.36-5.29 4.02-6.894 2.7-1.628 6.55-1.855 9.4-.528 2.53 1.177 3.81 3.3 4.47 5.906 1.84 7.327-14.63 147.118-19.02 158.389-4.86-13.615-10.39-27.347-13.9-41.363m-177.643 29.981c-1.134-1.913-19.029-137.084-18.742-146.206.116-3.673.994-7.881 4.18-10.169 2.448-1.758 7.07-2.506 9.905-1.338 2.352.968 3.295 2.774 4.009 5.043 2.555 8.125 2.52 17.863 3.352 26.349 1.888 19.251 5.772 69.987 11.537 86.001.103.286.218.568.327.853-4.756 13.143-9.169 26.582-14.568 39.467M717.36 200.656c3.075.672 5.748 1.319 8.009 3.684 2.236 2.339 85.892 237.02 85.137 241.614-.667 4.06-3.432 5.906-6.471 8.218-3.403-.146-6.333-.286-8.967-2.798-3.757-3.583-78.664-214.394-84.275-234.787-.597-2.17-1.171-4.905-.796-7.174.766-4.641 3.724-6.332 7.363-8.757m610.49 4.15c1.77.101 3.89.056 5.59.556 2.54.747 4.37 2.164 5.37 4.652 1.01 2.486.7 4.606.01 7.117-2.36 8.59-6.16 17.057-9.13 25.473l-19.04 53.977a5103 5103 0 0 1-37.1 100.963c-5.48 14.72-10.31 29.817-16.32 44.319-1.53 3.693-3.3 4.818-6.9 6.334-2.42-.396-5.95-1.011-7.89-2.622-1.98-1.651-2.87-3.116-2.98-5.706-.37-9.129 72.97-206.735 81.8-226.483 1.61-3.59 3.67-5.978 6.59-8.58M526.389 307.708c2.978.474 5.033 1.193 7.173 3.333 9.97 9.969 18.182 24.556 26.271 36.185l51.968 74.907 41.667 59.47c5.593 7.897 12.534 15.815 17.5 24.042 1.108 1.838 1.673 3.831 1.489 6-.369 4.34-3.33 6.224-6.539 8.534-3.609.074-5.946.021-8.848-2.513-8.784-7.669-34.889-48.293-43.372-60.429l-61.093-87.847c-9.538-13.763-19.834-27.25-28.78-41.391-2.066-3.266-4.445-6.602-3.995-10.681.463-4.209 3.597-6.964 6.559-9.61m988.581-.763c4.14-.2 6.65.108 10.03 2.448 1.34 2.008 2.04 3.489 1.65 5.98-.69 4.344-4.74 9.816-7.09 13.504-12.05 18.928-25.28 37.245-37.95 55.769l-54.16 79.268c-9.37 13.464-22.16 36.737-33.7 46.689-3.85.105-6.65-.298-9.93-2.367-2-2.739-2.35-4.863-1.85-8.238.7-4.767 112.83-168.828 125-184.904 2.39-3.16 4.85-5.707 8-8.149M369.889 454.584c3.422.422 5.83 1.387 8.665 3.384 12.878 9.073 24.988 19.833 37.21 29.786l65.093 52.93 47.173 38.288c7.417 6.042 17.138 12.52 23.23 19.862 1.685 2.031 2.296 4.929 1.677 7.481-.973 4.016-3.581 6.233-6.89 8.378-.639-.211-1.283-.409-1.918-.633-11.766-4.148-92.952-73.448-109.704-87.093-20.488-16.688-42.131-32.649-61.745-50.312-3.467-3.122-7.679-6.547-9.651-10.835.108-5.066 3.473-7.936 6.86-11.236m1304.481.328c2.14.292 4.42.48 6.17 1.87 1.87 1.49 3.79 4.345 4.06 6.748.36 3.097-.99 4.673-3.09 6.695-16.39 15.813-36.38 29.041-54.11 43.416-31.14 25.242-61.51 51.401-92.54 76.747-6.81 5.561-15.48 9.469-21.63 15.633-2.75 2.756-5.65 4.994-8.75 7.325-2.97-.515-5.49-1.458-7.77-3.452-2.59-2.256-2.66-4.424-2.71-7.669 5.36-12.162 110.02-92.48 126.59-105.669 14.84-11.813 37.59-33.686 53.78-41.644m-191.82 154.949c4.12.018 6.95.862 9.91 3.808.85 2.56 1.32 3.973.31 6.583-3.66 9.385-31.01 30.392-40.14 34.89-.95.1-1.63.203-2.55.205-3.25.007-5.82-1.086-8.07-3.407-.73-2.002-1.06-3.504-.45-5.616 3.23-11.312 30.7-30.251 40.99-36.463m-915.785 9.066c6.18-.386 9.052.786 14.228 3.854 6.234 3.694 15.247 10.045 16.349 17.815.58 4.088-2.066 6.662-4.635 9.334-.632.044-1.264.098-1.898.131-6.892.359-17.19-7.824-22.044-12.398-3.059-2.883-7.013-7.077-6.781-11.608.169-3.324 2.494-5.098 4.781-7.128m113.369-90.242c3.547.428 5.565.828 8.056 3.525 5.664 6.133 14.844 17.389 13.517 26.236-.618 4.123-3.779 5.899-6.975 7.909-5.028-.836-6.994-2.886-10.177-6.509-4.723-5.376-12.361-15.322-11.073-22.988.739-4.393 3.195-5.943 6.652-8.173m684.206-6.851c1.12-.109 2.53-.328 3.67-.189 2.95.358 6.37 1.763 7.87 4.503 1.04 1.895 1.07 4.029.65 6.095-1.64 8.099-10.02 19.19-16.8 23.683-3.64.323-7.74.683-10.55-2.161-1.51-1.524-1.95-3.472-1.82-5.557.53-8.906 10.52-20.642 16.98-26.374m-557.249-53.832c2.574-.107 5.574-.512 7.78 1.082 7.068 5.105 9.883 16.108 10.878 24.345.526 4.347-1.366 6.304-3.94 9.464-1.242.292-3.013.84-4.334.822-2.202-.031-4.16-.857-5.747-2.381-6.016-5.775-8.432-16.333-8.62-24.369-.094-4.007 1.371-6.107 3.983-8.963m425.599.843c1.05.013 2.11.01 3.17.079 2.96.193 5.7 1.043 7.45 3.631 2.18 3.222 1.96 8.255 1.16 11.878-1.54 6.961-5.47 14.968-11.48 18.912-3.4-.461-6.47-1.01-9.01-3.5-2.21-2.156-2.6-5.454-2.4-8.386.51-7.336 5.63-17.681 11.11-22.614"/><path fill="#A3CBCD" d="M1622.92 1083.38c24.99-21.2 52.59-40.31 78.63-60.34l154.67-119.542 49.33-38.828c11.87-9.262 25.47-18.242 35.66-29.334 9.49 51.427 17.06 101.968 19.19 154.35a945.57 945.57 0 0 1-169.94 573.444c-55.88 81.28-129.1 152.71-207.12 212.62-31.64-133.11-70.31-264.63-101.17-397.91a846 846 0 0 1-10.56-42.75c-5.01-10.81-6.98-25.26-9.98-36.86-6.57-25.5-13.28-50.97-20.15-76.39 21.68-19.62 51.54-39.85 75.41-57.89 28.14-21.26 55.39-43.9 84.27-64.16 7.21-5.53 14.46-11 21.76-16.41"/><path fill="#FFFEFD" d="M1471.61 1335.09c5.67 3.41 5.98 10.61 8.03 16.51l.88.61c6.42 4.32 13.4 7.71 20.05 11.65a3849 3849 0 0 1 43.6 26.33c37.09 22.83 73.43 46.86 110.21 70.18 12.07 7.65 24.08 15.41 36.24 22.91 4.97 3.07 10.97 5.41 15.38 9.22 3.87 3.33 7.54 8.12 8.58 13.21.54 2.7.17 4.39-.81 6.91-1.81 1.92-3.39 2.68-6.02 2.82-3.25.17-6.25-.55-9.09-2.11-16.46-8.97-32.09-21.11-47.86-31.4-33.17-21.65-66.88-42.31-100.46-63.31-22.28-13.94-44.47-29.43-68.17-40.78a846 846 0 0 1-10.56-42.75m151.31-251.71c53.73 3.15 107.62 8.77 161.23 13.78l52.46 4.82c9.83.87 20.09 1.27 29.81 2.94 3.16.55 6.06 1.06 8.33 3.54 1.47 1.61 1.87 2.68 2.44 4.72-.56 4.14-1.81 6.4-5.19 8.94-1.35 1-2.74 1.94-4.17 2.81l-160.44-14.28c-17.71-1.52-95.4-5.78-106.23-10.86 7.21-5.53 14.46-11 21.76-16.41m-104.18 120.73c11.47 1.44 23.65 7.33 34.51 11.35l61.82 23.22c44.84 16.62 89.55 33.57 134.15 50.83 19.89 7.59 40.16 14.55 59.8 22.75 2.95 1.23 7.64 2.79 9.49 5.47 1.61 2.34 2.23 4.5 1.85 7.31-.61 4.49-4.06 6.91-7.56 9.18-9.6-2.02-18.95-6.49-28.12-9.93l-49.45-18.41c-58.76-22.1-117.22-44.51-176.36-65.6-9.93-3.54-37.63-11.8-44.38-18.14-2-1.89-2.96-5.38-2.51-8.04.74-4.39 3.53-7.23 6.76-9.99"/><path fill="#A3CBCD" d="M110.419 838.628c8.548 9.088 18.962 16.372 28.675 24.151a1983 1983 0 0 0 54.315 42.516c47.151 35.801 93.33 72.851 140.278 108.925l56.249 43.17c9.355 7.26 19.574 14.37 28.163 22.48q11.277 8.715 22.448 17.58a4579 4579 0 0 1 110.789 85.67c17.932 14.13 35.48 28.87 54.013 42.21a4974 4974 0 0 0-22.229 85.33c-3.188 12.36-5.551 27.45-10.585 39.05l-6.766 25.16c-18.539 79.28-40.146 157.85-60.336 236.72-13.918 54.37-26.043 109.57-41.154 163.57-8.134-8-17.57-14.9-26.463-22.06a834 834 0 0 1-39.03-32.98c-58.075-52.76-105.285-107.81-150.089-172.16-19.28-27.69-35.786-57.12-51.489-86.93A928.77 928.77 0 0 1 90.951 967.4c2.48-40.712 7.081-81.976 15.337-121.956.758-3.668 1.026-4.665 4.131-6.816"/><path fill="#FFFEFD" d="M418.099 1079.87q11.277 8.715 22.448 17.58c-1.209.63-1.174.65-2.698 1.18-13.596 4.71-35.057 4.51-49.797 5.73a3917 3917 0 0 0-61.2 5.52l-86.372 8.45c-19.531 2.1-39.673 5.27-59.3 5.91-4.911.16-10.816 0-15.256-2.38-2.819-1.51-3.566-3.16-4.373-6.14.581-2.7 1.269-4.56 3.006-6.75 2.511-3.17 6.264-3.53 10.005-4.14 21.601-3.56 43.986-3.8 65.784-5.99l111.208-11.91c22.196-2.36 44.411-4.09 66.545-7.06m147.67 295c-55.773 31.38-109.291 68.19-163.119 102.84-14.805 9.53-29.296 19.94-44.447 28.87-3.567 2.1-9.695 6.26-13.969 5.76-2.813-.34-5.019-2.03-6.697-4.19-1.689-2.19-1.848-4.15-1.254-6.88.845-3.86 3.901-5.73 6.927-7.92 18.308-13.22 222.835-143.12 226.885-144.05.804-.18 1.627.27 2.44.41zm-43.731-168.74c1.22-.12 2.235-.26 3.485-.23 3.566.07 5.79 1.08 8.005 3.87 2.183 2.76 2.237 7.02 1.745 10.32-2.374 2.82-6.313 4.33-9.654 5.74-22.729 9.61-46.495 17.1-69.576 25.86a22250 22250 0 0 0-212.079 79.84c-3.246.9-5.613 1.57-8.906.46-2.202-.74-4.457-2.47-5.171-4.74-.848-2.7-.165-5.75 1.007-8.25 1.761-3.77 9.897-7.06 13.708-8.76 12.852-5.76 26.432-10.37 39.608-15.39a7296 7296 0 0 1 82.375-30.76c51.858-19.22 103.207-39.81 155.453-57.96"/><path fill="#A3CBCD" d="M543.304 1826.62c21.698-17.26 45.063-32.85 67.651-48.95l124.842-88.93 123.854-88.32c55.408-40.32 110.492-81.68 166.879-120.59 27.81 19.57 55.35 39.51 82.63 59.8l187.96 137.63 130.8 95.2 49 36.13c8.52 6.29 17.72 12.24 25.81 19.05-11.47 5.47-22.3 12.12-33.44 18.2-14.09 7.54-28.35 14.75-42.78 21.61a903 903 0 0 1-278.41 82.56c-175.912 23.67-369.368-4.27-529.357-82.04-25.015-12.15-53.366-24.5-75.439-41.35"/><path fill="#FFFEFD" d="M1021.78 1611c3.39.43 7.71 1.36 9.85 4.26 3.38 4.59 1.41 50.43 1.4 59.82l.15 159.95c.02 11.95 1.75 50.39-.59 59.81-1.07 4.33-4.35 5.72-7.95 7.68-3.34-.96-5.92-2.11-8.06-4.94-1.98-2.63-2.29-6.23-2.42-9.38-.84-20.58-.12-41.5-.1-62.11l.03-119.88c-.02-15.62-2.18-78.48.43-88.01 1.11-4.07 3.81-5.38 7.26-7.2m-144.637-8.21c3.882 0 8.145.55 11.018 3.5 1.934 1.98 2.939 4.06 2.796 6.85-.497 9.71-6.47 22.54-9.354 31.95l-23.574 77.5-28.278 96.35c-3.996 13.67-7.439 27.78-12.023 41.25-.989 2.91-3.389 5-5.524 7.09-3.238.59-6.476.99-9.415-.9-2.054-1.32-3.325-3.13-3.557-5.62-.727-7.77 64.124-227.82 71.916-248.57 1.434-3.82 3.144-6.49 5.995-9.4m283.767.25c2.93.01 7.12.12 9.39 2.33 3.26 3.16 77.76 245.19 76.74 254.41-.47 4.18-3.03 5.78-6.17 8.05-2.75-.46-7.03-1.08-8.94-3.37-3.18-3.82-5.21-11.59-6.76-16.3-12.47-37.73-22.99-76.43-34.54-114.48-11.67-38.42-24.46-76.66-35.85-115.12-.67-2.25-1.28-5.02-.78-7.37.94-4.39 3.38-5.94 6.91-8.15"/><path fill="#FFFEFD" d="M1023.16 132.627c7.02 9.421 26.73 72.187 32.29 87.565a21281 21281 0 0 1 127.8 364.909c5.51 16.046 45.3 139.345 48.07 142.683 2.35 2.847 8.22 4.018 11.71 4.51 54.14 7.648 108.83 12.113 163.08 19.043a32583 32583 0 0 1 516.61 70.383c-53.56 43.132-108.77 84.428-163.32 126.302a25413 25413 0 0 1-346.27 262.468c3.79 17.47 8.92 34.69 13.27 52.04l37.28 145.56 111.33 439.32c-18.03-10.33-34.96-24.03-51.83-36.2l-106.41-77.84-389.67-284.61c-2.31.67-4.73 1.63-6.7 3.02-6.44 4.53-12.22 10.28-18.49 15.12a3602 3602 0 0 1-49.799 36.96 25181 25181 0 0 1-322.113 230.21l-92.521 65.92c-21.058 15.18-42.066 32.36-64.93 44.67a7702 7702 0 0 0 44.419-180.4c9.929-40.76 20.693-81.42 31.294-122.01l53.334-203.71c10.768-40.93 22.496-81.61 31.845-122.89-9.424-8.69-20.352-16.28-30.408-24.28-27.665-22.02-55.914-43.3-83.715-65.15L242.382 910.859a5926 5926 0 0 1-79.043-61.712c-12.635-10.063-26.09-19.781-37.717-30.967 26.319-5.757 54.258-7.813 81.018-11.221l112.184-14.981 339.057-44.903c50.209-6.606 101.432-9.654 151.293-18.349 22.797-60.632 42.819-122.554 64.133-183.736l73.028-205.3a4748 4748 0 0 1 53.685-146.944c7.64-19.948 14.17-40.745 23.14-60.119"/><path fill="#F7D177" d="M1023.17 181.699c7.96 17.542 14.06 35.891 20.64 53.985a6137 6137 0 0 1 36.86 104.644 15290 15290 0 0 1 94.8 274.685l25 77.22c5.38 16.68 10.37 33.661 17.12 49.843 28.04 13.384 109.96 14.267 146.24 20.534 45.24 5.089 90.66 9.277 135.83 14.93 48.2 6.034 96.24 13.397 144.42 19.626 57.73 7.464 114.98 15.291 172.34 25.341 14.24 2.493 28.83 4.17 42.93 7.171 6.33 2.114 13.69 2.464 20.33 3.286-27.87 25.236-58.65 47.661-88.52 70.455l-116.09 88.469c-93.68 70.642-186.34 143.062-281.68 211.452 13.89 50.72 25.58 101.93 38.33 152.93l61.18 242.83 31.68 122.41c4.87 19.24 10.87 37.95 13.67 57.66l-6.22 7.23-12.21-2.96c-12.91-5.81-27.59-20.51-39.14-29.21q-38.55-28.635-77.49-56.73a29973 29973 0 0 0-372.92-272.15c-63.551 43.35-125.126 89.66-188.02 133.92a25040 25040 0 0 0-333.061 236.99c2.398-11.25 4.691-33.69 11.035-42.51-1.482-.92-3.058-1.78-4.16-3.18-1.283-1.62-1.864-4.13-1.274-6.14 1.36-4.62 6.057-7.73 9.75-10.33.667-9.85 4.189-20.65 6.449-30.31 6.492-27.74 14.032-55.28 20.922-82.93a18099 18099 0 0 1 63.854-244.91c14.232-52.7 31.66-110.3 41.963-163.51-2.463-4.58-5.464-8.12-9.359-11.59-12.801-11.39-27.282-21.54-40.738-32.18a7180 7180 0 0 0-94.93-74.26L280.51 914.006l-66.981-51.061c-14.721-11.225-29.91-22.076-43.616-34.538a19688 19688 0 0 0 323.264-41.815 7800 7800 0 0 1 94.716-12.986l153.287-18.869 47.442-5.387c7.992-.905 17.273-1.109 24.966-3.332 4.228-1.222 8.624-3.984 10.895-7.825 7.377-12.481 11.075-29.067 15.729-42.805 5.814-17.161 12.136-34.118 18.228-51.179a23831 23831 0 0 1 121.313-340.961l23.827-65.753c3.43-9.297 6.66-20.998 11.83-29.408.35-.566.71-1.121 1.07-1.681-2.6-8.877 2.71-17.023 6.69-24.707"/><path fill="#E4A865" d="M1363.83 762.61c45.24 5.089 90.66 9.277 135.83 14.93 48.2 6.034 96.24 13.397 144.42 19.626 57.73 7.464 114.98 15.291 172.34 25.341 14.24 2.493 28.83 4.17 42.93 7.171 6.33 2.114 13.69 2.464 20.33 3.286-27.87 25.236-58.65 47.661-88.52 70.455l-116.09 88.469c-93.68 70.642-186.34 143.062-281.68 211.452 13.89 50.72 25.58 101.93 38.33 152.93l61.18 242.83 31.68 122.41c4.87 19.24 10.87 37.95 13.67 57.66l-6.22 7.23-12.21-2.96c-12.91-5.81-27.59-20.51-39.14-29.21q-38.55-28.635-77.49-56.73a29973 29973 0 0 0-372.92-272.15c-63.551 43.35-125.126 89.66-188.02 133.92a25040 25040 0 0 0-333.061 236.99c2.398-11.25 4.691-33.69 11.035-42.51-1.482-.92-3.058-1.78-4.16-3.18-1.283-1.62-1.864-4.13-1.274-6.14 1.36-4.62 6.057-7.73 9.75-10.33 28.655-23.47 63.04-45 93.641-66.25l150.963-105.61 138.003-97.06c33.247-23.6 66.669-48.33 101.313-69.81-.61-14.09-.35-28.24-.32-42.34 19.52.27 38.55-.45 57.89-3.48 70.31-11.02 135.04-47.83 177.08-105.69 39.78-54.75 57.25-121.99 46.44-189q63.75-62.446 125.79-126.592c4.08-4.17 10.82-9.75 10.51-16.056-.13-2.562-.93-4.572-2.49-6.586-6.96-8.963-16.98-16.547-25.43-24.109a1573 1573 0 0 1-37.42-34.168c5.09-27.679 7.48-56.794 3.32-84.739"/><path fill="#312B39" d="M1859.35 829.678c6.33 2.114 13.69 2.464 20.33 3.286-27.87 25.236-58.65 47.661-88.52 70.455l-116.09 88.469c-93.68 70.642-186.34 143.062-281.68 211.452 13.89 50.72 25.58 101.93 38.33 152.93l61.18 242.83 31.68 122.41c4.87 19.24 10.87 37.95 13.67 57.66l-6.22 7.23-12.21-2.96c-10.1-44.63-22.35-88.75-33.47-133.13l-90.29-361.91c-3.51-14.66-21.77-82.05-20.92-91.57.37-4.21 71.44-53.95 79.66-60.04l295.54-223.249c36.4-27.762 72.2-56.697 109.01-83.863m-850.89 565.692c3.47-.43 5.29-.34 8.63.7 1.65 1.71 2.72 2.58 2.61 5.21-.18 4.74-5.26 9.99-8.89 12.52l-333.831 232.92-79.547 55.61c-20.082 14.31-39.94 29.27-60.502 42.85-5.094 3.37-10.592 7.48-16.706 8.57-1.482-.92-3.058-1.78-4.16-3.18-1.283-1.62-1.864-4.13-1.274-6.14 1.36-4.62 6.057-7.73 9.75-10.33 28.655-23.47 63.04-45 93.641-66.25l150.963-105.61 138.003-97.06c33.247-23.6 66.669-48.33 101.313-69.81m245.18-632.269c4.66-.147 9.33-.061 13.99-.066 10.06 7.519 19.16 17.655 28.51 26.162l64.37 58.152a1573 1573 0 0 0 37.42 34.168c8.45 7.562 18.47 15.146 25.43 24.109 1.56 2.014 2.36 4.024 2.49 6.586.31 6.306-6.43 11.886-10.51 16.056a6603 6603 0 0 1-125.79 126.592c10.81 67.01-6.66 134.25-46.44 189-42.04 57.86-106.77 94.67-177.08 105.69-19.34 3.03-38.37 3.75-57.89 3.48-39.768-4.75-69.25-8.66-106.216-26.76a260.56 260.56 0 0 1-133.093-148.53c-22.341-65.44-18.957-140.32 11.853-202.453 32.634-65.81 87.224-114.051 157.067-137.529 79.039-26.57 150.029-13.329 222.719 23.101 18.15-20.568 37.58-40.157 56.48-60.033 11.91-12.524 23.59-26.486 36.69-37.725"/><path fill="#FFFEFD" d="M1260.87 780.035c1.92.712 3.59 1.514 5.17 2.836 6.68 5.578 12.78 12.42 19.1 18.443a4114 4114 0 0 0 37.87 35.424c27.4 25.437 56.16 49.708 82.51 76.205-18.86 19.042-38.28 37.495-57.15 56.513-17.01 17.145-33.25 35.074-50.53 51.944-9.68 9.45-19.98 18.06-29.96 27.16 11 49.64 6.39 98.57-15.02 144.99-27.31 59.22-79.01 104.36-139.92 126.73-68.7 25.23-139.38 20.22-205.476-10.23-36.617-17.53-69.125-46.83-92.567-79.76-38.187-53.65-49.948-121.36-38.753-185.69a246.13 246.13 0 0 1 100.64-157.235c62.301-43.656 149.776-59.451 222.386-34.042a320 320 0 0 1 30.36 12.4c10.48 4.928 22.07 12.589 33.48 14.633 8.48-2.415 80.16-87.54 97.86-100.321"/><path fill="#312B39" d="M1262.61 822.57c1.33.12 2.28.264 3.45 1.04 6.77 4.507 13.88 13.332 20.03 18.904l39.97 35.836c8.65 7.725 18.02 15.336 25.64 24.102 3.7 4.259 6.95 8.813 7.66 14.521-.76 1.534-1.59 2.7-2.69 4.018-12.84 15.391-28.33 29.517-42.43 43.801a3298 3298 0 0 0-65.69 68.328l-147.82 156.99c-21.81 23.33-42.95 47.46-65.08 70.45-2.49 2.59-4.63 3.72-8.27 4.05-12.5-4.92-90.407-77.09-108.091-92.39-11.273-9.78-91.984-78.64-94.555-83.61-1.518-2.93-.789-6.98.096-9.95 12.328-13.94 25.701-27.12 38.209-40.97 11-12.18 29.796-35.49 41.825-44.941 2.064-1.622 4.721-2.194 7.3-2.329 2.249-.118 3.517.507 5.369 1.72 13.637 8.93 26.423 21.61 38.973 32.11 24.051 20.14 48.694 39.96 71.634 61.38l158.78-180.3 45.99-52.355c9.15-10.23 18.68-22.2 29.7-30.405"/><path fill="#A3CBCD" d="m1263.86 845.688 14.41 13.706c20.49 18.041 39.85 37.479 60.83 54.931-40.71 39.446-79.21 81.452-118.19 122.605l-193.79 206.03a7431 7431 0 0 1-114.777-99.77c-17.031-15.15-35.538-29.77-51.076-46.42l-15.5-13.83a2239 2239 0 0 1 67.025-72.71c21.271 19.03 43.508 37.21 65.101 55.91 14.159 12.26 36.737 34.79 52.477 43.21 9.05-8.24 16.9-19.23 25.08-28.46 17.73-19.66 35.36-39.42 52.87-59.27z"/><path fill="#FFFEFD" d="m1263.86 845.688 14.41 13.706c-10.63 15.566-23.97 29.805-36.22 44.142-26.27 30.763-53.09 60.724-80.49 90.489a15193 15193 0 0 1-104.15 113.495c-8.66 9.43-16.67 19.46-25.4 28.82l-80.219-67.47c-12.282-10.28-24.043-21.28-36.943-30.79-18.226 19.27-35.607 39.21-53.581 58.69l-15.5-13.83a2239 2239 0 0 1 67.025-72.71c21.271 19.03 43.508 37.21 65.101 55.91 14.159 12.26 36.737 34.79 52.477 43.21 9.05-8.24 16.9-19.23 25.08-28.46 17.73-19.66 35.36-39.42 52.87-59.27z"/><path fill="#312B39" d="M1023.17 181.699c7.96 17.542 14.06 35.891 20.64 53.985a6137 6137 0 0 1 36.86 104.644 15290 15290 0 0 1 94.8 274.685l25 77.22c5.38 16.68 10.37 33.661 17.12 49.843-.24 1.097-.39 1.989-.72 3.034-1 3.28-2.89 5.137-5.92 6.662-1.93.201-2.97.22-4.8-.6-3.69-1.654-6.67-6.395-8.05-10.007-2.87-7.471-4.65-15.783-7.07-23.46a5207 5207 0 0 0-18.43-57.241l-57.74-170.39-65.63-189.244c-10.99-31.394-22.94-62.643-32.75-94.424-2.6-8.877 2.71-17.023 6.69-24.707"/><path fill="#FFFEFD" d="M910.736 585.718c3.06.14 7.33.146 9.893 2.118 1.922 1.479 2.887 2.703 2.892 5.198.012 6.389-45.011 134.951-51.602 146.849-7.529 13.593-19.336 26.585-31.072 36.668-38.683 6.86-78.02 10.833-116.866 16.793a29988 29988 0 0 1-435.747 63.473c-1.72-.084-3.319-.26-4.992-.685-3.392-.859-5.055-2.891-6.802-5.747-.29-2.695-.7-4.254 1.112-6.593 1.726-2.229 5.04-3.51 7.719-3.944 8.431-1.364 17.191-1.753 25.692-2.943l92.301-12.898 304.019-44.74a5870 5870 0 0 1 71.795-10.863c17.589-2.47 35.475-4.186 52.863-7.827 9.496-8.591 18.484-18.948 24.687-30.196 7.841-14.217 12.106-31.328 17.234-46.698l23.12-68.026c3.274-9.523 6.428-22.82 13.754-29.939"/><path fill="#312B39" d="M528.721 852.375c3.372-.268 4.045-.501 7.13 1.156l.467 1.778c-6.253 5.652-130.029 20.015-149.771 22.248-1.136.256-2.964.827-4.184.806-2.763-.049-3.268-1.006-5.104-2.85l.255-1.655c4.583-3.548 135.649-19.368 151.207-21.483M679.36 1399.26c2.401 1.11 3.076 1.23 4.491 3.41-1.384 11.21-16.786 49.44-21.266 62.43-4.957 14.37-8.627 30.96-15.391 44.47-1.935-.43-2.966-.77-4.49-2.05-.711-8.97 31.463-93.7 36.656-108.26m305.52-957.141c2.381.932 3.254 1.085 4.825 3.05-1.794 12.549-5.884 25.172-9.105 37.439l-17.037 64.238c-2.024-.569-2.969-1.032-4.476-2.506-.594-8.369 22.08-87.772 25.793-102.221m11.941 123.18c1.46.48 2.806 1.19 4.189 1.848.23.641.62 1.245.7 1.921.02.221-21.273 75.41-23.332 83.81-2.115-.662-3.554-1.074-5.179-2.621-.603-6.627 19.712-73.904 23.622-84.958m-300.84 928.961 3.814 2.09c.229.58.602 1.13.687 1.75.45 3.28-20.575 55.29-23.302 62.71-1.665-.12-2.484-.44-3.994-1.07-2.253-6.81 18.872-55.69 22.795-65.48m246.132-836.164c1.738.652 3.008 1.52 4.507 2.603.856 3.601-16.321 58.649-18.705 67.977l-4.309-1.912c-1.615-5.272 15.51-59.878 18.507-68.668M459.666 901.369l3.372-.289c2.157 1.131 2.382 1.069 3.329 3.275-4.495 5.072-20.862 5.382-27.471 6.284-.272.064-.539.158-.816.193-2.971.376-3.452.346-5.881-1.209l-.303-1.915c4.427-5.046 21.24-5.447 27.77-6.339"/></svg>