<svg version="1.1" xmlns="http://www.w3.org/2000/svg" style="display: block;" viewBox="0 0 2048 2048" width="1024" height="1024" preserveAspectRatio="none">
<path transform="translate(0,0)" fill="rgb(255,254,253)" d="M 0 0 L 2048 0 L 2048 2048 L 0 2048 L 0 0 z"/>
<path transform="translate(0,0)" fill="rgb(49,43,57)" d="M 118.721 794.951 C 121.289 772.487 129.939 749.376 136.556 727.779 C 185.795 567.059 307.503 398.053 438.779 293.514 C 635.069 136.623 885.971 64.7859 1135.55 94.0158 C 1381.35 122.726 1605.32 248.945 1757.18 444.339 C 1835.71 543.706 1904.42 676.408 1930.25 800.633 C 1937.62 804.413 1940.99 808.1 1945 815.27 C 1945.2 823.21 1945.14 828.162 1941.21 835.336 C 1950.7 886.763 1958.27 937.304 1960.4 989.686 C 1967.29 1194.19 1907.66 1395.4 1790.46 1563.13 C 1734.58 1644.41 1661.36 1715.84 1583.34 1775.75 C 1587.85 1793.05 1599.01 1826.53 1598.74 1843.16 C 1598.65 1848.33 1597.25 1853.84 1594.63 1858.32 C 1591.39 1863.86 1586.19 1867.2 1580.01 1868.63 C 1568.21 1871.37 1557.02 1865.72 1547.47 1859.38 C 1532.31 1849.31 1517.23 1838.62 1502.73 1827.64 C 1491.26 1833.11 1480.43 1839.76 1469.29 1845.84 C 1455.2 1853.38 1440.94 1860.59 1426.51 1867.45 C 1338.77 1909.81 1244.75 1937.69 1148.1 1950.01 C 972.188 1973.68 778.732 1945.74 618.743 1867.97 C 593.728 1855.82 565.377 1843.47 543.304 1826.62 C 527.569 1836.98 512.823 1848.81 497.031 1859.06 C 486.864 1865.65 478.153 1871.36 465.542 1868.3 C 459.466 1866.82 454.523 1863.26 451.557 1857.71 C 449.356 1853.59 448.415 1848.95 448.439 1844.3 C 448.52 1828.52 459.442 1791.45 464.279 1775.16 C 456.145 1767.16 446.709 1760.26 437.816 1753.1 C 424.474 1742.51 411.458 1731.51 398.786 1720.12 C 340.711 1667.36 293.501 1612.31 248.697 1547.96 C 229.417 1520.27 212.911 1490.84 197.208 1461.03 C 116.883 1309.46 80.1042 1138.6 90.9508 967.4 C 93.4318 926.688 98.0323 885.424 106.288 845.444 C 107.046 841.776 107.314 840.779 110.419 838.628 C 108.123 835.871 106.201 832.823 104.705 829.563 C 101.772 823.325 100.961 815.825 103.442 809.306 C 106.332 801.715 111.687 798.299 118.721 794.951 z"/>
<path transform="translate(0,0)" fill="rgb(163,203,205)" d="M 118.721 794.951 C 121.289 772.487 129.939 749.376 136.556 727.779 C 185.795 567.059 307.503 398.053 438.779 293.514 C 635.069 136.623 885.971 64.7859 1135.55 94.0158 C 1381.35 122.726 1605.32 248.945 1757.18 444.339 C 1835.71 543.706 1904.42 676.408 1930.25 800.633 C 1900.93 794.989 1870.37 792.554 1840.75 788.214 L 1717.13 769.385 C 1673.36 762.95 1629.6 757.148 1586.03 749.414 C 1576.66 747.682 1567.27 746.071 1557.86 744.581 C 1541.27 744.212 1524.11 740.775 1507.6 738.691 L 1415.21 727.338 L 1314.01 714.878 C 1293.11 712.444 1270.37 711.879 1250.09 706.369 C 1244.07 691.893 1240.09 676.653 1235.1 661.805 C 1224.62 631.65 1214.34 601.424 1204.27 571.129 C 1175.73 489.644 1147.67 407.988 1120.1 326.167 C 1115.24 312.552 1109.71 298.82 1106.2 284.804 C 1085.83 234.244 1069.67 182.208 1050.37 131.28 C 1046.69 121.591 1042.23 112.56 1032.08 108.366 C 1025.86 105.792 1019.1 105.768 1012.96 108.61 C 1008.5 110.677 1004.88 114.183 1002.37 118.391 C 992.795 134.454 987.748 155.466 981.251 173.081 L 943.125 275.318 C 938.369 288.461 933.956 301.9 928.557 314.785 C 916.363 353.957 901.887 392.752 888.192 431.431 L 820.404 623.843 C 810.802 651.468 800.648 679.013 792.013 706.953 C 732.899 713.537 673.868 720.841 614.932 728.864 C 573.125 734.374 531.238 740.391 489.284 744.627 C 479.276 745.855 469.134 746.829 459.173 748.359 L 211.138 781.994 L 154.499 789.441 C 142.91 790.897 129.823 791.416 118.721 794.951 z"/>
<path transform="translate(0,0)" fill="rgb(255,254,253)" d="M 1557.86 744.581 C 1566.81 738.544 1575.74 732.507 1585.32 727.48 C 1598.95 720.332 1613.19 714.267 1627.12 707.73 C 1654.68 694.48 1682.4 681.589 1710.29 669.063 C 1731.65 659.295 1752.76 647.371 1774.55 638.866 C 1778.71 637.246 1784.56 634.996 1789.08 636.127 C 1791.4 636.709 1794.07 638.695 1795.27 640.824 C 1796.51 643.049 1796.5 645.232 1795.51 647.537 C 1794.07 650.868 1784.89 654.952 1781.58 656.612 C 1741.61 676.692 1699.99 693.824 1659.57 713.045 C 1643.43 720.805 1627.38 728.734 1611.41 736.829 C 1603.09 741.043 1594.7 746.077 1586.03 749.414 C 1576.66 747.682 1567.27 746.071 1557.86 744.581 z"/>
<path transform="translate(0,0)" fill="rgb(255,254,253)" d="M 459.173 748.359 C 449.374 739.605 432.543 734.242 420.596 728.872 C 398.697 719.029 268.308 664.149 258.023 654.377 C 255.39 651.875 255.27 649.883 255.186 646.499 C 256.207 644.227 257.605 641.866 260.03 640.829 C 263.502 639.345 266.328 640.485 269.576 641.756 C 314.15 659.196 357.44 680.076 401.013 699.815 C 427.91 712 458.693 723.257 483.582 738.996 C 486.4 740.778 487.969 741.594 489.284 744.627 C 479.276 745.855 469.134 746.829 459.173 748.359 z"/>
<path transform="translate(0,0)" fill="rgb(255,254,253)" d="M 1106.2 284.804 L 1106.48 283.652 C 1112.97 256.806 1115.13 227.918 1117.95 200.433 C 1119 190.285 1119.11 179.249 1121.23 169.294 C 1121.84 166.437 1122.59 164.004 1125.25 162.4 C 1127.95 160.772 1131.8 160.545 1134.65 161.872 C 1137.18 163.049 1138.46 165.172 1139.12 167.778 C 1140.96 175.105 1124.49 314.896 1120.1 326.167 C 1115.24 312.552 1109.71 298.82 1106.2 284.804 z"/>
<path transform="translate(0,0)" fill="rgb(255,254,253)" d="M 928.557 314.785 C 927.423 312.872 909.528 177.701 909.815 168.579 C 909.931 164.906 910.809 160.698 913.995 158.41 C 916.443 156.652 921.065 155.904 923.9 157.072 C 926.252 158.04 927.195 159.846 927.909 162.115 C 930.464 170.24 930.429 179.978 931.261 188.464 C 933.149 207.715 937.033 258.451 942.798 274.465 C 942.901 274.751 943.016 275.033 943.125 275.318 C 938.369 288.461 933.956 301.9 928.557 314.785 z"/>
<path transform="translate(0,0)" fill="rgb(255,254,253)" d="M 717.36 200.656 C 720.435 201.328 723.108 201.975 725.369 204.34 C 727.605 206.679 811.261 441.36 810.506 445.954 C 809.839 450.014 807.074 451.86 804.035 454.172 C 800.632 454.026 797.702 453.886 795.068 451.374 C 791.311 447.791 716.404 236.98 710.793 216.587 C 710.196 214.417 709.622 211.682 709.997 209.413 C 710.763 204.772 713.721 203.081 717.36 200.656 z"/>
<path transform="translate(0,0)" fill="rgb(255,254,253)" d="M 1327.85 204.806 C 1329.62 204.907 1331.74 204.862 1333.44 205.362 C 1335.98 206.109 1337.81 207.526 1338.81 210.014 C 1339.82 212.5 1339.51 214.62 1338.82 217.131 C 1336.46 225.721 1332.66 234.188 1329.69 242.604 L 1310.65 296.581 C 1298.64 330.364 1286.27 364.02 1273.55 397.544 C 1268.07 412.264 1263.24 427.361 1257.23 441.863 C 1255.7 445.556 1253.93 446.681 1250.33 448.197 C 1247.91 447.801 1244.38 447.186 1242.44 445.575 C 1240.46 443.924 1239.57 442.459 1239.46 439.869 C 1239.09 430.74 1312.43 233.134 1321.26 213.386 C 1322.87 209.796 1324.93 207.408 1327.85 204.806 z"/>
<path transform="translate(0,0)" fill="rgb(255,254,253)" d="M 526.389 307.708 C 529.367 308.182 531.422 308.901 533.562 311.041 C 543.532 321.01 551.744 335.597 559.833 347.226 L 611.801 422.133 L 653.468 481.603 C 659.061 489.5 666.002 497.418 670.968 505.645 C 672.076 507.483 672.641 509.476 672.457 511.645 C 672.088 515.985 669.127 517.869 665.918 520.179 C 662.309 520.253 659.972 520.2 657.07 517.666 C 648.286 509.997 622.181 469.373 613.698 457.237 L 552.605 369.39 C 543.067 355.627 532.771 342.14 523.825 327.999 C 521.759 324.733 519.38 321.397 519.83 317.318 C 520.293 313.109 523.427 310.354 526.389 307.708 z"/>
<path transform="translate(0,0)" fill="rgb(255,254,253)" d="M 1514.97 306.945 C 1519.11 306.745 1521.62 307.053 1525 309.393 C 1526.34 311.401 1527.04 312.882 1526.65 315.373 C 1525.96 319.717 1521.91 325.189 1519.56 328.877 C 1507.51 347.805 1494.28 366.122 1481.61 384.646 L 1427.45 463.914 C 1418.08 477.378 1405.29 500.651 1393.75 510.603 C 1389.9 510.708 1387.1 510.305 1383.82 508.236 C 1381.82 505.497 1381.47 503.373 1381.97 499.998 C 1382.67 495.231 1494.8 331.17 1506.97 315.094 C 1509.36 311.934 1511.82 309.387 1514.97 306.945 z"/>
<path transform="translate(0,0)" fill="rgb(255,254,253)" d="M 369.889 454.584 C 373.311 455.006 375.719 455.971 378.554 457.968 C 391.432 467.041 403.542 477.801 415.764 487.754 L 480.857 540.684 L 528.03 578.972 C 535.447 585.014 545.168 591.492 551.26 598.834 C 552.945 600.865 553.556 603.763 552.937 606.315 C 551.964 610.331 549.356 612.548 546.047 614.693 C 545.408 614.482 544.764 614.284 544.129 614.06 C 532.363 609.912 451.177 540.612 434.425 526.967 C 413.937 510.279 392.294 494.318 372.68 476.655 C 369.213 473.533 365.001 470.108 363.029 465.82 C 363.137 460.754 366.502 457.884 369.889 454.584 z"/>
<path transform="translate(0,0)" fill="rgb(255,254,253)" d="M 1674.37 454.912 C 1676.51 455.204 1678.79 455.392 1680.54 456.782 C 1682.41 458.272 1684.33 461.127 1684.6 463.53 C 1684.96 466.627 1683.61 468.203 1681.51 470.225 C 1665.12 486.038 1645.13 499.266 1627.4 513.641 C 1596.26 538.883 1565.89 565.042 1534.86 590.388 C 1528.05 595.949 1519.38 599.857 1513.23 606.021 C 1510.48 608.777 1507.58 611.015 1504.48 613.346 C 1501.51 612.831 1498.99 611.888 1496.71 609.894 C 1494.12 607.638 1494.05 605.47 1494 602.225 C 1499.36 590.063 1604.02 509.745 1620.59 496.556 C 1635.43 484.743 1658.18 462.87 1674.37 454.912 z"/>
<path transform="translate(0,0)" fill="rgb(255,254,253)" d="M 1482.55 609.861 C 1486.67 609.879 1489.5 610.723 1492.46 613.669 C 1493.31 616.229 1493.78 617.642 1492.77 620.252 C 1489.11 629.637 1461.76 650.644 1452.63 655.142 C 1451.68 655.242 1451 655.345 1450.08 655.347 C 1446.83 655.354 1444.26 654.261 1442.01 651.94 C 1441.28 649.938 1440.95 648.436 1441.56 646.324 C 1444.79 635.012 1472.26 616.073 1482.55 609.861 z"/>
<path transform="translate(0,0)" fill="rgb(255,254,253)" d="M 566.765 618.927 C 572.945 618.541 575.817 619.713 580.993 622.781 C 587.227 626.475 596.24 632.826 597.342 640.596 C 597.922 644.684 595.276 647.258 592.707 649.93 C 592.075 649.974 591.443 650.028 590.809 650.061 C 583.917 650.42 573.619 642.237 568.765 637.663 C 565.706 634.78 561.752 630.586 561.984 626.055 C 562.153 622.731 564.478 620.957 566.765 618.927 z"/>
<path transform="translate(0,0)" fill="rgb(255,254,253)" d="M 680.134 528.685 C 683.681 529.113 685.699 529.513 688.19 532.21 C 693.854 538.343 703.034 549.599 701.707 558.446 C 701.089 562.569 697.928 564.345 694.732 566.355 C 689.704 565.519 687.738 563.469 684.555 559.846 C 679.832 554.47 672.194 544.524 673.482 536.858 C 674.221 532.465 676.677 530.915 680.134 528.685 z"/>
<path transform="translate(0,0)" fill="rgb(255,254,253)" d="M 1364.34 521.834 C 1365.46 521.725 1366.87 521.506 1368.01 521.645 C 1370.96 522.003 1374.38 523.408 1375.88 526.148 C 1376.92 528.043 1376.95 530.177 1376.53 532.243 C 1374.89 540.342 1366.51 551.433 1359.73 555.926 C 1356.09 556.249 1351.99 556.609 1349.18 553.765 C 1347.67 552.241 1347.23 550.293 1347.36 548.208 C 1347.89 539.302 1357.88 527.566 1364.34 521.834 z"/>
<path transform="translate(0,0)" fill="rgb(255,254,253)" d="M 807.091 468.002 C 809.665 467.895 812.665 467.49 814.871 469.084 C 821.939 474.189 824.754 485.192 825.749 493.429 C 826.275 497.776 824.383 499.733 821.809 502.893 C 820.567 503.185 818.796 503.733 817.475 503.715 C 815.273 503.684 813.315 502.858 811.728 501.334 C 805.712 495.559 803.296 485.001 803.108 476.965 C 803.014 472.958 804.479 470.858 807.091 468.002 z"/>
<path transform="translate(0,0)" fill="rgb(255,254,253)" d="M 1232.69 468.845 C 1233.74 468.858 1234.8 468.855 1235.86 468.924 C 1238.82 469.117 1241.56 469.967 1243.31 472.555 C 1245.49 475.777 1245.27 480.81 1244.47 484.433 C 1242.93 491.394 1239 499.401 1232.99 503.345 C 1229.59 502.884 1226.52 502.335 1223.98 499.845 C 1221.77 497.689 1221.38 494.391 1221.58 491.459 C 1222.09 484.123 1227.21 473.778 1232.69 468.845 z"/>
<path transform="translate(0,0)" fill="rgb(163,203,205)" d="M 1622.92 1083.38 C 1647.91 1062.18 1675.51 1043.07 1701.55 1023.04 L 1856.22 903.498 L 1905.55 864.67 C 1917.42 855.408 1931.02 846.428 1941.21 835.336 C 1950.7 886.763 1958.27 937.304 1960.4 989.686 C 1967.29 1194.19 1907.66 1395.4 1790.46 1563.13 C 1734.58 1644.41 1661.36 1715.84 1583.34 1775.75 C 1551.7 1642.64 1513.03 1511.12 1482.17 1377.84 C 1478.28 1363.69 1474.76 1349.43 1471.61 1335.09 C 1466.6 1324.28 1464.63 1309.83 1461.63 1298.23 C 1455.06 1272.73 1448.35 1247.26 1441.48 1221.84 C 1463.16 1202.22 1493.02 1181.99 1516.89 1163.95 C 1545.03 1142.69 1572.28 1120.05 1601.16 1099.79 C 1608.37 1094.26 1615.62 1088.79 1622.92 1083.38 z"/>
<path transform="translate(0,0)" fill="rgb(255,254,253)" d="M 1471.61 1335.09 C 1477.28 1338.5 1477.59 1345.7 1479.64 1351.6 L 1480.52 1352.21 C 1486.94 1356.53 1493.92 1359.92 1500.57 1363.86 C 1515.16 1372.54 1529.7 1381.32 1544.17 1390.19 C 1581.26 1413.02 1617.6 1437.05 1654.38 1460.37 C 1666.45 1468.02 1678.46 1475.78 1690.62 1483.28 C 1695.59 1486.35 1701.59 1488.69 1706 1492.5 C 1709.87 1495.83 1713.54 1500.62 1714.58 1505.71 C 1715.12 1508.41 1714.75 1510.1 1713.77 1512.62 C 1711.96 1514.54 1710.38 1515.3 1707.75 1515.44 C 1704.5 1515.61 1701.5 1514.89 1698.66 1513.33 C 1682.2 1504.36 1666.57 1492.22 1650.8 1481.93 C 1617.63 1460.28 1583.92 1439.62 1550.34 1418.62 C 1528.06 1404.68 1505.87 1389.19 1482.17 1377.84 C 1478.28 1363.69 1474.76 1349.43 1471.61 1335.09 z"/>
<path transform="translate(0,0)" fill="rgb(255,254,253)" d="M 1622.92 1083.38 C 1676.65 1086.53 1730.54 1092.15 1784.15 1097.16 L 1836.61 1101.98 C 1846.44 1102.85 1856.7 1103.25 1866.42 1104.92 C 1869.58 1105.47 1872.48 1105.98 1874.75 1108.46 C 1876.22 1110.07 1876.62 1111.14 1877.19 1113.18 C 1876.63 1117.32 1875.38 1119.58 1872 1122.12 C 1870.65 1123.12 1869.26 1124.06 1867.83 1124.93 L 1707.39 1110.65 C 1689.68 1109.13 1611.99 1104.87 1601.16 1099.79 C 1608.37 1094.26 1615.62 1088.79 1622.92 1083.38 z"/>
<path transform="translate(0,0)" fill="rgb(255,254,253)" d="M 1518.74 1204.11 C 1530.21 1205.55 1542.39 1211.44 1553.25 1215.46 L 1615.07 1238.68 C 1659.91 1255.3 1704.62 1272.25 1749.22 1289.51 C 1769.11 1297.1 1789.38 1304.06 1809.02 1312.26 C 1811.97 1313.49 1816.66 1315.05 1818.51 1317.73 C 1820.12 1320.07 1820.74 1322.23 1820.36 1325.04 C 1819.75 1329.53 1816.3 1331.95 1812.8 1334.22 C 1803.2 1332.2 1793.85 1327.73 1784.68 1324.29 L 1735.23 1305.88 C 1676.47 1283.78 1618.01 1261.37 1558.87 1240.28 C 1548.94 1236.74 1521.24 1228.48 1514.49 1222.14 C 1512.49 1220.25 1511.53 1216.76 1511.98 1214.1 C 1512.72 1209.71 1515.51 1206.87 1518.74 1204.11 z"/>
<path transform="translate(0,0)" fill="rgb(163,203,205)" d="M 110.419 838.628 C 118.967 847.716 129.381 855 139.094 862.779 C 156.951 877.265 175.059 891.439 193.409 905.295 C 240.56 941.096 286.739 978.146 333.687 1014.22 L 389.936 1057.39 C 399.291 1064.65 409.51 1071.76 418.099 1079.87 C 425.617 1085.68 433.1 1091.54 440.547 1097.45 C 477.911 1125.44 514.845 1154 551.336 1183.12 C 569.268 1197.25 586.816 1211.99 605.349 1225.33 C 597.689 1253.7 590.278 1282.15 583.12 1310.66 C 579.932 1323.02 577.569 1338.11 572.535 1349.71 L 565.769 1374.87 C 547.23 1454.15 525.623 1532.72 505.433 1611.59 C 491.515 1665.96 479.39 1721.16 464.279 1775.16 C 456.145 1767.16 446.709 1760.26 437.816 1753.1 C 424.474 1742.51 411.458 1731.51 398.786 1720.12 C 340.711 1667.36 293.501 1612.31 248.697 1547.96 C 229.417 1520.27 212.911 1490.84 197.208 1461.03 C 116.883 1309.46 80.1042 1138.6 90.9508 967.4 C 93.4318 926.688 98.0323 885.424 106.288 845.444 C 107.046 841.776 107.314 840.779 110.419 838.628 z"/>
<path transform="translate(0,0)" fill="rgb(255,254,253)" d="M 418.099 1079.87 C 425.617 1085.68 433.1 1091.54 440.547 1097.45 C 439.338 1098.08 439.373 1098.1 437.849 1098.63 C 424.253 1103.34 402.792 1103.14 388.052 1104.36 C 367.638 1106.04 347.237 1107.88 326.852 1109.88 L 240.48 1118.33 C 220.949 1120.43 200.807 1123.6 181.18 1124.24 C 176.269 1124.4 170.364 1124.24 165.924 1121.86 C 163.105 1120.35 162.358 1118.7 161.551 1115.72 C 162.132 1113.02 162.82 1111.16 164.557 1108.97 C 167.068 1105.8 170.821 1105.44 174.562 1104.83 C 196.163 1101.27 218.548 1101.03 240.346 1098.84 L 351.554 1086.93 C 373.75 1084.57 395.965 1082.84 418.099 1079.87 z"/>
<path transform="translate(0,0)" fill="rgb(255,254,253)" d="M 565.769 1374.87 C 509.996 1406.25 456.478 1443.06 402.65 1477.71 C 387.845 1487.24 373.354 1497.65 358.203 1506.58 C 354.636 1508.68 348.508 1512.84 344.234 1512.34 C 341.421 1512 339.215 1510.31 337.537 1508.15 C 335.848 1505.96 335.689 1504 336.283 1501.27 C 337.128 1497.41 340.184 1495.54 343.21 1493.35 C 361.518 1480.13 566.045 1350.23 570.095 1349.3 C 570.899 1349.12 571.722 1349.57 572.535 1349.71 L 565.769 1374.87 z"/>
<path transform="translate(0,0)" fill="rgb(255,254,253)" d="M 522.038 1206.13 C 523.258 1206.01 524.273 1205.87 525.523 1205.9 C 529.089 1205.97 531.313 1206.98 533.528 1209.77 C 535.711 1212.53 535.765 1216.79 535.273 1220.09 C 532.899 1222.91 528.96 1224.42 525.619 1225.83 C 502.89 1235.44 479.124 1242.93 456.043 1251.69 C 385.215 1277.94 314.521 1304.56 243.964 1331.53 C 240.718 1332.43 238.351 1333.1 235.058 1331.99 C 232.856 1331.25 230.601 1329.52 229.887 1327.25 C 229.039 1324.55 229.722 1321.5 230.894 1319 C 232.655 1315.23 240.791 1311.94 244.602 1310.24 C 257.454 1304.48 271.034 1299.87 284.21 1294.85 C 311.605 1284.43 339.064 1274.18 366.585 1264.09 C 418.443 1244.87 469.792 1224.28 522.038 1206.13 z"/>
<path transform="translate(0,0)" fill="rgb(163,203,205)" d="M 543.304 1826.62 C 565.002 1809.36 588.367 1793.77 610.955 1777.67 L 735.797 1688.74 L 859.651 1600.42 C 915.059 1560.1 970.143 1518.74 1026.53 1479.83 C 1054.34 1499.4 1081.88 1519.34 1109.16 1539.63 L 1297.12 1677.26 L 1427.92 1772.46 L 1476.92 1808.59 C 1485.44 1814.88 1494.64 1820.83 1502.73 1827.64 C 1491.26 1833.11 1480.43 1839.76 1469.29 1845.84 C 1455.2 1853.38 1440.94 1860.59 1426.51 1867.45 C 1338.77 1909.81 1244.75 1937.69 1148.1 1950.01 C 972.188 1973.68 778.732 1945.74 618.743 1867.97 C 593.728 1855.82 565.377 1843.47 543.304 1826.62 z"/>
<path transform="translate(0,0)" fill="rgb(255,254,253)" d="M 1021.78 1611 C 1025.17 1611.43 1029.49 1612.36 1031.63 1615.26 C 1035.01 1619.85 1033.04 1665.69 1033.03 1675.08 L 1033.18 1835.03 C 1033.2 1846.98 1034.93 1885.42 1032.59 1894.84 C 1031.52 1899.17 1028.24 1900.56 1024.64 1902.52 C 1021.3 1901.56 1018.72 1900.41 1016.58 1897.58 C 1014.6 1894.95 1014.29 1891.35 1014.16 1888.2 C 1013.32 1867.62 1014.04 1846.7 1014.06 1826.09 L 1014.09 1706.21 C 1014.07 1690.59 1011.91 1627.73 1014.52 1618.2 C 1015.63 1614.13 1018.33 1612.82 1021.78 1611 z"/>
<path transform="translate(0,0)" fill="rgb(255,254,253)" d="M 877.143 1602.79 C 881.025 1602.79 885.288 1603.34 888.161 1606.29 C 890.095 1608.27 891.1 1610.35 890.957 1613.14 C 890.46 1622.85 884.487 1635.68 881.603 1645.09 L 858.029 1722.59 L 829.751 1818.94 C 825.755 1832.61 822.312 1846.72 817.728 1860.19 C 816.739 1863.1 814.339 1865.19 812.204 1867.28 C 808.966 1867.87 805.728 1868.27 802.789 1866.38 C 800.735 1865.06 799.464 1863.25 799.232 1860.76 C 798.505 1852.99 863.356 1632.94 871.148 1612.19 C 872.582 1608.37 874.292 1605.7 877.143 1602.79 z"/>
<path transform="translate(0,0)" fill="rgb(255,254,253)" d="M 1160.91 1603.04 C 1163.84 1603.05 1168.03 1603.16 1170.3 1605.37 C 1173.56 1608.53 1248.06 1850.56 1247.04 1859.78 C 1246.57 1863.96 1244.01 1865.56 1240.87 1867.83 C 1238.12 1867.37 1233.84 1866.75 1231.93 1864.46 C 1228.75 1860.64 1226.72 1852.87 1225.17 1848.16 C 1212.7 1810.43 1202.18 1771.73 1190.63 1733.68 C 1178.96 1695.26 1166.17 1657.02 1154.78 1618.56 C 1154.11 1616.31 1153.5 1613.54 1154 1611.19 C 1154.94 1606.8 1157.38 1605.25 1160.91 1603.04 z"/>
<path transform="translate(0,0)" fill="rgb(255,254,253)" d="M 1023.16 132.627 C 1030.18 142.048 1049.89 204.814 1055.45 220.192 C 1099.15 341.439 1141.76 463.08 1183.25 585.101 C 1188.76 601.147 1228.55 724.446 1231.32 727.784 C 1233.67 730.631 1239.54 731.802 1243.03 732.294 C 1297.17 739.942 1351.86 744.407 1406.11 751.337 C 1578.5 773.42 1750.71 796.882 1922.72 821.72 C 1869.16 864.852 1813.95 906.148 1759.4 948.022 C 1644.72 1036.5 1529.3 1123.99 1413.13 1210.49 C 1416.92 1227.96 1422.05 1245.18 1426.4 1262.53 L 1463.68 1408.09 L 1575.01 1847.41 C 1556.98 1837.08 1540.05 1823.38 1523.18 1811.21 L 1416.77 1733.37 L 1027.1 1448.76 C 1024.79 1449.43 1022.37 1450.39 1020.4 1451.78 C 1013.96 1456.31 1008.18 1462.06 1001.91 1466.9 C 985.421 1479.36 968.82 1491.68 952.111 1503.86 C 845.344 1581.44 737.969 1658.18 629.998 1734.07 L 537.477 1799.99 C 516.419 1815.17 495.411 1832.35 472.547 1844.66 C 488.078 1784.71 502.885 1724.57 516.966 1664.26 C 526.895 1623.5 537.659 1582.84 548.26 1542.25 L 601.594 1338.54 C 612.362 1297.61 624.09 1256.93 633.439 1215.65 C 624.015 1206.96 613.087 1199.37 603.031 1191.37 C 575.366 1169.35 547.117 1148.07 519.316 1126.22 L 242.382 910.859 C 215.861 890.512 189.512 869.94 163.339 849.147 C 150.704 839.084 137.249 829.366 125.622 818.18 C 151.941 812.423 179.88 810.367 206.64 806.959 L 318.824 791.978 L 657.881 747.075 C 708.09 740.469 759.313 737.421 809.174 728.726 C 831.971 668.094 851.993 606.172 873.307 544.99 L 946.335 339.69 C 963.421 290.417 981.32 241.429 1000.02 192.746 C 1007.66 172.798 1014.19 152.001 1023.16 132.627 z"/>
<path transform="translate(0,0)" fill="rgb(247,209,119)" d="M 1023.17 181.699 C 1031.13 199.241 1037.23 217.59 1043.81 235.684 C 1056.41 270.452 1068.7 305.336 1080.67 340.328 C 1113.14 431.587 1144.74 523.153 1175.47 615.013 L 1200.47 692.233 C 1205.85 708.913 1210.84 725.894 1217.59 742.076 C 1245.63 755.46 1327.55 756.343 1363.83 762.61 C 1409.07 767.699 1454.49 771.887 1499.66 777.54 C 1547.86 783.574 1595.9 790.937 1644.08 797.166 C 1701.81 804.63 1759.06 812.457 1816.42 822.507 C 1830.66 825 1845.25 826.677 1859.35 829.678 C 1865.68 831.792 1873.04 832.142 1879.68 832.964 C 1851.81 858.2 1821.03 880.625 1791.16 903.419 L 1675.07 991.888 C 1581.39 1062.53 1488.73 1134.95 1393.39 1203.34 C 1407.28 1254.06 1418.97 1305.27 1431.72 1356.27 L 1492.9 1599.1 L 1524.58 1721.51 C 1529.45 1740.75 1535.45 1759.46 1538.25 1779.17 L 1532.03 1786.4 L 1519.82 1783.44 C 1506.91 1777.63 1492.23 1762.93 1480.68 1754.23 C 1454.98 1735.14 1429.15 1716.23 1403.19 1697.5 C 1279.58 1605.82 1155.27 1515.11 1030.27 1425.35 C 966.719 1468.7 905.144 1515.01 842.25 1559.27 C 730.585 1637.36 619.561 1716.36 509.189 1796.26 C 511.587 1785.01 513.88 1762.57 520.224 1753.75 C 518.742 1752.83 517.166 1751.97 516.064 1750.57 C 514.781 1748.95 514.2 1746.44 514.79 1744.43 C 516.15 1739.81 520.847 1736.7 524.54 1734.1 C 525.207 1724.25 528.729 1713.45 530.989 1703.79 C 537.481 1676.05 545.021 1648.51 551.911 1620.86 C 572.625 1539.07 593.91 1457.44 615.765 1375.95 C 629.997 1323.25 647.425 1265.65 657.728 1212.44 C 655.265 1207.86 652.264 1204.32 648.369 1200.85 C 635.568 1189.46 621.087 1179.31 607.631 1168.67 C 576.197 1143.65 544.552 1118.9 512.701 1094.41 L 280.51 914.006 L 213.529 862.945 C 198.808 851.72 183.619 840.869 169.913 828.407 C 277.781 815.361 385.54 801.422 493.177 786.592 C 524.722 782.07 556.295 777.741 587.893 773.606 L 741.18 754.737 L 788.622 749.35 C 796.614 748.445 805.895 748.241 813.588 746.018 C 817.816 744.796 822.212 742.034 824.483 738.193 C 831.86 725.712 835.558 709.126 840.212 695.388 C 846.026 678.227 852.348 661.27 858.44 644.209 C 898.014 530.25 938.453 416.593 979.753 303.248 L 1003.58 237.495 C 1007.01 228.198 1010.24 216.497 1015.41 208.087 C 1015.76 207.521 1016.12 206.966 1016.48 206.406 C 1013.88 197.529 1019.19 189.383 1023.17 181.699 z"/>
<path transform="translate(0,0)" fill="rgb(228,168,101)" d="M 1363.83 762.61 C 1409.07 767.699 1454.49 771.887 1499.66 777.54 C 1547.86 783.574 1595.9 790.937 1644.08 797.166 C 1701.81 804.63 1759.06 812.457 1816.42 822.507 C 1830.66 825 1845.25 826.677 1859.35 829.678 C 1865.68 831.792 1873.04 832.142 1879.68 832.964 C 1851.81 858.2 1821.03 880.625 1791.16 903.419 L 1675.07 991.888 C 1581.39 1062.53 1488.73 1134.95 1393.39 1203.34 C 1407.28 1254.06 1418.97 1305.27 1431.72 1356.27 L 1492.9 1599.1 L 1524.58 1721.51 C 1529.45 1740.75 1535.45 1759.46 1538.25 1779.17 L 1532.03 1786.4 L 1519.82 1783.44 C 1506.91 1777.63 1492.23 1762.93 1480.68 1754.23 C 1454.98 1735.14 1429.15 1716.23 1403.19 1697.5 C 1279.58 1605.82 1155.27 1515.11 1030.27 1425.35 C 966.719 1468.7 905.144 1515.01 842.25 1559.27 C 730.585 1637.36 619.561 1716.36 509.189 1796.26 C 511.587 1785.01 513.88 1762.57 520.224 1753.75 C 518.742 1752.83 517.166 1751.97 516.064 1750.57 C 514.781 1748.95 514.2 1746.44 514.79 1744.43 C 516.15 1739.81 520.847 1736.7 524.54 1734.1 C 553.195 1710.63 587.58 1689.1 618.181 1667.85 L 769.144 1562.24 L 907.147 1465.18 C 940.394 1441.58 973.816 1416.85 1008.46 1395.37 C 1007.85 1381.28 1008.11 1367.13 1008.14 1353.03 C 1027.66 1353.3 1046.69 1352.58 1066.03 1349.55 C 1136.34 1338.53 1201.07 1301.72 1243.11 1243.86 C 1282.89 1189.11 1300.36 1121.87 1289.55 1054.86 C 1332.05 1013.23 1373.98 971.032 1415.34 928.268 C 1419.42 924.098 1426.16 918.518 1425.85 912.212 C 1425.72 909.65 1424.92 907.64 1423.36 905.626 C 1416.4 896.663 1406.38 889.079 1397.93 881.517 C 1385.27 870.328 1372.8 858.937 1360.51 847.349 C 1365.6 819.67 1367.99 790.555 1363.83 762.61 z"/>
<path transform="translate(0,0)" fill="rgb(49,43,57)" d="M 1859.35 829.678 C 1865.68 831.792 1873.04 832.142 1879.68 832.964 C 1851.81 858.2 1821.03 880.625 1791.16 903.419 L 1675.07 991.888 C 1581.39 1062.53 1488.73 1134.95 1393.39 1203.34 C 1407.28 1254.06 1418.97 1305.27 1431.72 1356.27 L 1492.9 1599.1 L 1524.58 1721.51 C 1529.45 1740.75 1535.45 1759.46 1538.25 1779.17 L 1532.03 1786.4 L 1519.82 1783.44 C 1509.72 1738.81 1497.47 1694.69 1486.35 1650.31 L 1396.06 1288.4 C 1392.55 1273.74 1374.29 1206.35 1375.14 1196.83 C 1375.51 1192.62 1446.58 1142.88 1454.8 1136.79 L 1750.34 913.541 C 1786.74 885.779 1822.54 856.844 1859.35 829.678 z"/>
<path transform="translate(0,0)" fill="rgb(49,43,57)" d="M 1008.46 1395.37 C 1011.93 1394.94 1013.75 1395.03 1017.09 1396.07 C 1018.74 1397.78 1019.81 1398.65 1019.7 1401.28 C 1019.52 1406.02 1014.44 1411.27 1010.81 1413.8 L 676.979 1646.72 L 597.432 1702.33 C 577.35 1716.64 557.492 1731.6 536.93 1745.18 C 531.836 1748.55 526.338 1752.66 520.224 1753.75 C 518.742 1752.83 517.166 1751.97 516.064 1750.57 C 514.781 1748.95 514.2 1746.44 514.79 1744.43 C 516.15 1739.81 520.847 1736.7 524.54 1734.1 C 553.195 1710.63 587.58 1689.1 618.181 1667.85 L 769.144 1562.24 L 907.147 1465.18 C 940.394 1441.58 973.816 1416.85 1008.46 1395.37 z"/>
<path transform="translate(0,0)" fill="rgb(49,43,57)" d="M 1253.64 763.101 C 1258.3 762.954 1262.97 763.04 1267.63 763.035 C 1277.69 770.554 1286.79 780.69 1296.14 789.197 L 1360.51 847.349 C 1372.8 858.937 1385.27 870.328 1397.93 881.517 C 1406.38 889.079 1416.4 896.663 1423.36 905.626 C 1424.92 907.64 1425.72 909.65 1425.85 912.212 C 1426.16 918.518 1419.42 924.098 1415.34 928.268 C 1373.98 971.032 1332.05 1013.23 1289.55 1054.86 C 1300.36 1121.87 1282.89 1189.11 1243.11 1243.86 C 1201.07 1301.72 1136.34 1338.53 1066.03 1349.55 C 1046.69 1352.58 1027.66 1353.3 1008.14 1353.03 C 968.372 1348.28 938.89 1344.37 901.924 1326.27 C 839.618 1296.37 791.742 1242.94 768.831 1177.74 C 746.49 1112.3 749.874 1037.42 780.684 975.287 C 813.318 909.477 867.908 861.236 937.751 837.758 C 1016.79 811.188 1087.78 824.429 1160.47 860.859 C 1178.62 840.291 1198.05 820.702 1216.95 800.826 C 1228.86 788.302 1240.54 774.34 1253.64 763.101 z"/>
<path transform="translate(0,0)" fill="rgb(255,254,253)" d="M 1260.87 780.035 C 1262.79 780.747 1264.46 781.549 1266.04 782.871 C 1272.72 788.449 1278.82 795.291 1285.14 801.314 C 1297.69 813.201 1310.31 825.009 1323.01 836.738 C 1350.41 862.175 1379.17 886.446 1405.52 912.943 C 1386.66 931.985 1367.24 950.438 1348.37 969.456 C 1331.36 986.601 1315.12 1004.53 1297.84 1021.4 C 1288.16 1030.85 1277.86 1039.46 1267.88 1048.56 C 1278.88 1098.2 1274.27 1147.13 1252.86 1193.55 C 1225.55 1252.77 1173.85 1297.91 1112.94 1320.28 C 1044.24 1345.51 973.56 1340.5 907.464 1310.05 C 870.847 1292.52 838.339 1263.22 814.897 1230.29 C 776.71 1176.64 764.949 1108.93 776.144 1044.6 C 787.741 981.007 823.891 924.528 876.784 887.365 C 939.085 843.709 1026.56 827.914 1099.17 853.323 C 1109.42 856.907 1119.71 861.104 1129.53 865.723 C 1140.01 870.651 1151.6 878.312 1163.01 880.356 C 1171.49 877.941 1243.17 792.816 1260.87 780.035 z"/>
<path transform="translate(0,0)" fill="rgb(49,43,57)" d="M 1262.61 822.57 C 1263.94 822.69 1264.89 822.834 1266.06 823.61 C 1272.83 828.117 1279.94 836.942 1286.09 842.514 L 1326.06 878.35 C 1334.71 886.075 1344.08 893.686 1351.7 902.452 C 1355.4 906.711 1358.65 911.265 1359.36 916.973 C 1358.6 918.507 1357.77 919.673 1356.67 920.991 C 1343.83 936.382 1328.34 950.508 1314.24 964.792 C 1292.02 987.248 1270.12 1010.03 1248.55 1033.12 L 1100.73 1190.11 C 1078.92 1213.44 1057.78 1237.57 1035.65 1260.56 C 1033.16 1263.15 1031.02 1264.28 1027.38 1264.61 C 1014.88 1259.69 936.973 1187.52 919.289 1172.22 C 908.016 1162.44 827.305 1093.58 824.734 1088.61 C 823.216 1085.68 823.945 1081.63 824.83 1078.66 C 837.158 1064.72 850.531 1051.54 863.039 1037.69 C 874.039 1025.51 892.835 1002.2 904.864 992.749 C 906.928 991.127 909.585 990.555 912.164 990.42 C 914.413 990.302 915.681 990.927 917.533 992.14 C 931.17 1001.07 943.956 1013.75 956.506 1024.25 C 980.557 1044.39 1005.2 1064.21 1028.14 1085.63 L 1186.92 905.33 L 1232.91 852.975 C 1242.06 842.745 1251.59 830.775 1262.61 822.57 z"/>
<path transform="translate(0,0)" fill="rgb(163,203,205)" d="M 1263.86 845.688 L 1278.27 859.394 C 1298.76 877.435 1318.12 896.873 1339.1 914.325 C 1298.39 953.771 1259.89 995.777 1220.91 1036.93 L 1027.12 1242.96 C 988.52 1210.09 950.259 1176.84 912.343 1143.19 C 895.312 1128.04 876.805 1113.42 861.267 1096.77 L 845.767 1082.94 C 867.572 1058.21 889.919 1033.97 912.792 1010.23 C 934.063 1029.26 956.3 1047.44 977.893 1066.14 C 992.052 1078.4 1014.63 1100.93 1030.37 1109.35 C 1039.42 1101.11 1047.27 1090.12 1055.45 1080.89 C 1073.18 1061.23 1090.81 1041.47 1108.32 1021.62 L 1263.86 845.688 z"/>
<path transform="translate(0,0)" fill="rgb(255,254,253)" d="M 1263.86 845.688 L 1278.27 859.394 C 1267.64 874.96 1254.3 889.199 1242.05 903.536 C 1215.78 934.299 1188.96 964.26 1161.56 994.025 C 1127.04 1032.03 1092.32 1069.86 1057.41 1107.52 C 1048.75 1116.95 1040.74 1126.98 1032.01 1136.34 L 951.791 1068.87 C 939.509 1058.59 927.748 1047.59 914.848 1038.08 C 896.622 1057.35 879.241 1077.29 861.267 1096.77 L 845.767 1082.94 C 867.572 1058.21 889.919 1033.97 912.792 1010.23 C 934.063 1029.26 956.3 1047.44 977.893 1066.14 C 992.052 1078.4 1014.63 1100.93 1030.37 1109.35 C 1039.42 1101.11 1047.27 1090.12 1055.45 1080.89 C 1073.18 1061.23 1090.81 1041.47 1108.32 1021.62 L 1263.86 845.688 z"/>
<path transform="translate(0,0)" fill="rgb(49,43,57)" d="M 1023.17 181.699 C 1031.13 199.241 1037.23 217.59 1043.81 235.684 C 1056.41 270.452 1068.7 305.336 1080.67 340.328 C 1113.14 431.587 1144.74 523.153 1175.47 615.013 L 1200.47 692.233 C 1205.85 708.913 1210.84 725.894 1217.59 742.076 C 1217.35 743.173 1217.2 744.065 1216.87 745.11 C 1215.87 748.39 1213.98 750.247 1210.95 751.772 C 1209.02 751.973 1207.98 751.992 1206.15 751.172 C 1202.46 749.518 1199.48 744.777 1198.1 741.165 C 1195.23 733.694 1193.45 725.382 1191.03 717.705 C 1185 698.589 1178.85 679.508 1172.6 660.464 L 1114.86 490.074 L 1049.23 300.83 C 1038.24 269.436 1026.29 238.187 1016.48 206.406 C 1013.88 197.529 1019.19 189.383 1023.17 181.699 z"/>
<path transform="translate(0,0)" fill="rgb(255,254,253)" d="M 910.736 585.718 C 913.796 585.858 918.066 585.864 920.629 587.836 C 922.551 589.315 923.516 590.539 923.521 593.034 C 923.533 599.423 878.51 727.985 871.919 739.883 C 864.39 753.476 852.583 766.468 840.847 776.551 C 802.164 783.411 762.827 787.384 723.981 793.344 C 578.889 815.568 433.636 836.726 288.234 856.817 C 286.514 856.733 284.915 856.557 283.242 856.132 C 279.85 855.273 278.187 853.241 276.44 850.385 C 276.15 847.69 275.74 846.131 277.552 843.792 C 279.278 841.563 282.592 840.282 285.271 839.848 C 293.702 838.484 302.462 838.095 310.963 836.905 L 403.264 824.007 L 707.283 779.267 C 731.192 775.498 755.124 771.877 779.078 768.404 C 796.667 765.934 814.553 764.218 831.941 760.577 C 841.437 751.986 850.425 741.629 856.628 730.381 C 864.469 716.164 868.734 699.053 873.862 683.683 L 896.982 615.657 C 900.256 606.134 903.41 592.837 910.736 585.718 z"/>
<path transform="translate(0,0)" fill="rgb(49,43,57)" d="M 528.721 852.375 C 532.093 852.107 532.766 851.874 535.851 853.531 L 536.318 855.309 C 530.065 860.961 406.289 875.324 386.547 877.557 C 385.411 877.813 383.583 878.384 382.363 878.363 C 379.6 878.314 379.095 877.357 377.259 875.513 L 377.514 873.858 C 382.097 870.31 513.163 854.49 528.721 852.375 z"/>
<path transform="translate(0,0)" fill="rgb(49,43,57)" d="M 679.36 1399.26 C 681.761 1400.37 682.436 1400.49 683.851 1402.67 C 682.467 1413.88 667.065 1452.11 662.585 1465.1 C 657.628 1479.47 653.958 1496.06 647.194 1509.57 C 645.259 1509.14 644.228 1508.8 642.704 1507.52 C 641.993 1498.55 674.167 1413.82 679.36 1399.26 z"/>
<path transform="translate(0,0)" fill="rgb(49,43,57)" d="M 984.88 442.119 C 987.261 443.051 988.134 443.204 989.705 445.169 C 987.911 457.718 983.821 470.341 980.6 482.608 L 963.563 546.846 C 961.539 546.277 960.594 545.814 959.087 544.34 C 958.493 535.971 981.167 456.568 984.88 442.119 z"/>
<path transform="translate(0,0)" fill="rgb(49,43,57)" d="M 996.821 565.299 C 998.281 565.779 999.627 566.489 1001.01 567.147 C 1001.24 567.788 1001.63 568.392 1001.71 569.068 C 1001.73 569.289 980.437 644.478 978.378 652.878 C 976.263 652.216 974.824 651.804 973.199 650.257 C 972.596 643.63 992.911 576.353 996.821 565.299 z"/>
<path transform="translate(0,0)" fill="rgb(49,43,57)" d="M 695.981 1494.26 L 699.795 1496.35 C 700.024 1496.93 700.397 1497.48 700.482 1498.1 C 700.932 1501.38 679.907 1553.39 677.18 1560.81 C 675.515 1560.69 674.696 1560.37 673.186 1559.74 C 670.933 1552.93 692.058 1504.05 695.981 1494.26 z"/>
<path transform="translate(0,0)" fill="rgb(49,43,57)" d="M 942.113 658.096 C 943.851 658.748 945.121 659.616 946.62 660.699 C 947.476 664.3 930.299 719.348 927.915 728.676 L 923.606 726.764 C 921.991 721.492 939.116 666.886 942.113 658.096 z"/>
<path transform="translate(0,0)" fill="rgb(49,43,57)" d="M 459.666 901.369 L 463.038 901.08 C 465.195 902.211 465.42 902.149 466.367 904.355 C 461.872 909.427 445.505 909.737 438.896 910.639 C 438.624 910.703 438.357 910.797 438.08 910.832 C 435.109 911.208 434.628 911.178 432.199 909.623 L 431.896 907.708 C 436.323 902.662 453.136 902.261 459.666 901.369 z"/>
</svg>